<svg
   xmlns="http://www.w3.org/2000/svg"><symbol id="mastodon-svg-logo-full" viewBox="0 0 713.35878 175.8678">
  <metadata
     id="metadata941">
    <rdf:RDF>
      <cc:Work
         rdf:about="">
        <dc:format>image/svg+xml</dc:format>
        <dc:type
           rdf:resource="http://purl.org/dc/dcmitype/StillImage" />
        <dc:title></dc:title>
      </cc:Work>
    </rdf:RDF>
  </metadata>
  <defs
     id="defs939" />
  <sodipodi:namedview
     pagecolor="#ffffff"
     bordercolor="#666666"
     borderopacity="1"
     objecttolerance="10"
     gridtolerance="10"
     guidetolerance="10"
     inkscape:pageopacity="0"
     inkscape:pageshadow="2"
     inkscape:window-width="1280"
     inkscape:window-height="847"
     id="namedview937"
     showgrid="false"
     inkscape:zoom="2.1580645"
     inkscape:cx="143.16561"
     inkscape:cy="123.18799"
     inkscape:window-x="1925"
     inkscape:window-y="411"
     inkscape:window-maximized="0"
     inkscape:current-layer="svg935" />
  <g
     id="g933"
     transform="rotate(-45,128,154.88)"
     style="fill:#ff0000">
    <path
       d="M 127.25,57.75 24.805,92.011 24,189.875 44.877,185.237 V 95.393 L 128,73.64 211.123,95.393 v 89.844 l 21.502,4.638 0.038,-98.839 L 127.25,57.75"
       fill="#876929"
       id="path925"
       style="fill:#ff0000" />
    <path
       d="M 230.316,186.738 211.123,185.237 128,196.543 44.877,185.237 l -19.193,1.501 102.675,20.486 101.957,-20.486"
       fill="#fad791"
       id="path927"
       style="fill:#ff0000" />
    <path
       d="M 129.434,205.7 128,202.687 25.689,186.737 V 92.501 L 128,61.806 129.009,60.388 V 1.926 L 128,0 0,64 v 154.941 l 89.714,31.93 v 39.62 l 38.372,19.269 1.169,-3.316 0.179,-100.744"
       fill="#876929"
       id="path929"
       style="fill:#ff0000" />
    <path
       d="m 128,0 v 61.806 l 102.311,30.695 v 94.236 L 128,202.687 v 13.625 l -0.086,0.017 v 93.431 l 38.372,-19.269 v -39.62 L 256,218.941 V 64 L 128,0"
       fill="#d9a741"
       id="path931"
       style="fill:#ff0000" />
  </g>
</svg>
