<svg xmlns="http://www.w3.org/2000/svg" xmlns:xlink="http://www.w3.org/1999/xlink" id="body_1" width="1024" height="1449"><symbol id="mastodon-svg-logo-full" viewBox="0 0 713.35878 175.8678">
<g transform="matrix(1.289673 0 0 1.290294 0 0)">
	<g transform="matrix(3.780952 0 0 3.781145 0 5.769569E-05)">
	</g>
    <path transform="matrix(3.780952 0 0 3.781145 0 5.769569E-05)"  d="M31.8866 106.4461C 31.94934 106.5873 31.98071 106.7206 31.98071 106.8461L31.98071 106.8461L31.98071 120.2333C 31.98071 120.4373 32.02777 120.6804 32.12188 120.9627L32.12188 120.9627L32.12188 117.9512C 31.44742 118.9707 30.78865 119.4805 30.14555 119.4805L30.14555 119.4805L31.8866 106.4461zM28.63978 112.6574C 28.63978 111.7006 28.49077 110.736 28.19275 109.7635z" stroke="#FF0000" stroke-width="0.588" fill="#000000" fill-rule="nonzero" />
	<g transform="matrix(3.780952 0 0 3.781145 0 5.769569E-05)">
	</g>
    <path transform="matrix(3.780952 0 0 3.781145 0 5.769569E-05)"  d="M49.06112 107.6695C 49.09249 107.9048 49.04544 108.1558 48.91995 108.4224L48.91995 108.4224L49.06112 107.6695z" stroke="#FF0000" stroke-width="0.588" fill="#000000" fill-rule="nonzero" />
	<g transform="matrix(3.780952 0 0 3.781145 0 5.769569E-05)">
	</g>
    <path transform="matrix(3.780952 0 0 3.781145 0 5.769569E-05)"  d="M60.90658 101.5053C 60.95364 101.5524 60.97717 101.6308 60.97716 101.7406L60.97716 101.7406L60.90658 101.5053zM61.21244 107.246C 61.21244 107.4657 61.08696 107.8107 60.836 108.2813L60.836 108.2813L60.836 115.1984C 60.836 115.5121 60.92227 115.9591 61.0948 116.5395z" stroke="#FF0000" stroke-width="0.588" fill="#000000" fill-rule="nonzero" />
	<g transform="matrix(3.780952 0 0 3.781145 0 5.769569E-05)">
	</g>
    <path transform="matrix(3.780952 0 0 3.781145 0 5.769569E-05)"  d="M78.70273 112.6574C 78.70273 114.3201 78.34982 115.8337 77.64398 117.1983L77.64398 117.1983L77.64398 120.2098C 77.64398 120.4608 77.74594 120.7823 77.94984 121.1745L77.94984 121.1745L77.94984 107.7872C 77.94984 107.6147 77.8871 107.4108 77.76162 107.1755L77.76162 107.1755L78.70273 112.6574zM75.73824 112.6574C 75.73824 111.1673 75.70686 110.2184 75.64413 109.8106z" stroke="#FF0000" stroke-width="0.588" fill="#000000" fill-rule="nonzero" />
	<g transform="matrix(3.780952 0 0 3.781145 0 5.769569E-05)">
	</g>
    <path transform="matrix(3.780952 0 0 3.781145 0 5.769569E-05)"  d="M114.9012 108.4695C 114.7757 108.4695 114.5797 108.4224 114.313 108.3283L114.313 108.3283L113.4425 108.7754L113.4425 116.8218C 113.4425 117.1199 113.5994 117.5041 113.9131 117.9747L113.9131 117.9747L113.9131 115.9278C 113.9131 115.7709 113.866 115.567 113.7719 115.316L113.7719 115.316L113.7719 116.4689C 114.0542 116.3434 114.3679 116.1317 114.713 115.8337L114.713 115.8337L114.9012 108.4695z" stroke="#FF0000" stroke-width="0.588" fill="#000000" fill-rule="nonzero" />
	<g transform="matrix(3.780952 0 0 3.781145 0 5.769569E-05)">
	</g>
    <path transform="matrix(3.780952 0 0 3.781145 0 5.769569E-05)"  d="M130.4166 107.0108C 131.4675 108.0774 131.993 109.8733 131.993 112.3986L131.993 112.3986L130.4166 107.0108zM127.7345 108.1401C 127.2169 108.093 126.7698 108.5793 126.3934 109.5988z" stroke="#FF0000" stroke-width="0.588" fill="#000000" fill-rule="nonzero" />
	<g transform="matrix(3.780952 0 0 3.781145 0 5.769569E-05)">
	</g>
    <path transform="matrix(3.780952 0 0 3.781145 0 5.769569E-05)"  d="M157.125 106.3049C 157.1721 106.4304 157.1956 106.5481 157.1956 106.6579L157.1956 106.6579L154.6076 114.4691C 154.5292 114.72 154.49 115.0181 154.4899 115.3631L154.4899 115.3631L153.0783 110.14L151.7137 114.8455C 151.6666 115.0181 151.6274 115.3474 151.596 115.8337L151.596 115.8337L149.5256 107.7872C 149.4785 107.5833 149.3374 107.2068 149.1021 106.6579L149.1021 106.6579L150.5138 112.3045L152.4901 106.5167C 152.5214 106.4069 152.5371 106.2971 152.5371 106.1873L152.5371 106.1873L153.9488 111.834L156.2074 105.058C 156.2388 104.9639 156.2545 104.8619 156.2545 104.7521L156.2545 104.7521L157.125 106.3049z" stroke="#FF0000" stroke-width="0.588" fill="#000000" fill-rule="nonzero" />
	<g transform="matrix(3.780952 0 0 3.781145 0 5.769569E-05)">
	</g>
    <path transform="matrix(3.780952 0 0 3.781145 0 5.769569E-05)"  d="M175.9729 117.6453C 175.9416 117.9904 175.7142 118.2884 175.2906 118.5394L175.2906 118.5394L175.2906 121.7862C 176.2788 119.6844 177.0238 118.2962 177.5257 117.6218L177.5257 117.6218L175.9729 117.6453z" stroke="#FF0000" stroke-width="0.588" fill="#000000" fill-rule="nonzero" />
	<g transform="matrix(0.05983447 -0.05983753 0.05983447 0.05983753 337.4389 458.3905)">
	</g>
    <path transform="matrix(0.05983447 -0.05983753 0.05983447 0.05983753 337.4389 458.3905)"  d="M127.25 57.75L24.805 92.011L24 189.875L44.877 185.237L44.877 95.393L128 73.64L211.123 95.393L211.123 185.237L232.625 189.875L232.663 91.036L127.25 57.75" stroke="none" fill="#FF0000" fill-rule="nonzero" />
	<g transform="matrix(0.05983447 -0.05983753 0.05983447 0.05983753 337.4389 458.3905)">
	</g>
    <path transform="matrix(0.05983447 -0.05983753 0.05983447 0.05983753 337.4389 458.3905)"  d="M230.316 186.738L211.123 185.237L128 196.543L44.877 185.237L25.684 186.738L128.359 207.224L230.316 186.738" stroke="none" fill="#FF0000" fill-rule="nonzero" />
	<g transform="matrix(0.05983447 -0.05983753 0.05983447 0.05983753 337.4389 458.3905)">
	</g>
    <path transform="matrix(0.05983447 -0.05983753 0.05983447 0.05983753 337.4389 458.3905)"  d="M129.434 205.7L128 202.687L25.689 186.737L25.689 92.501L128 61.806L129.009 60.388L129.009 1.926L128 0L0 64L0 218.941L89.714 250.871L89.714 290.491L128.086 309.76L129.255 306.444L129.434 205.7" stroke="none" fill="#FF0000" fill-rule="nonzero" />
	<g transform="matrix(0.05983447 -0.05983753 0.05983447 0.05983753 337.4389 458.3905)">
	</g>
    <path transform="matrix(0.05983447 -0.05983753 0.05983447 0.05983753 337.4389 458.3905)"  d="M128 0L128 61.806L230.311 92.501L230.311 186.737L128 202.687L128 216.312L127.914 216.329L127.914 309.76L166.286 290.491L166.286 250.871L256 218.941L256 64L128 0" stroke="none" fill="#FF0000" fill-rule="nonzero" />
</g>
</svg>