<svg xmlns="http://www.w3.org/2000/svg"><symbol id="mastodon-svg-logo-full" viewBox="0 0 607 150"><path
       d="m 31.886604,106.44611 q 0.09411,0.21175 0.09411,0.39997 0,0.23528 -0.188222,0.61172 -0.188221,0.35292 -0.188221,0.61172 v 13.38726 q 0,0.30586 0.141166,0.72936 0.164694,0.44703 0.164694,0.70583 0,0.25881 -0.09411,0.54114 -0.282332,0.847 -1.458717,0.847 -1.43519,0 -1.929272,-1.05875 -0.117638,-0.23528 -0.117638,-0.47055 0,-0.30586 0.30586,-0.89405 0.30586,-0.5882 0.30586,-0.96464 v -3.01155 q -1.011691,1.5293 -1.976327,1.5293 -1.717522,0 -2.893907,-2.2116 -1.058746,-2.04691 -1.058746,-4.54085 0,-2.70568 0.682303,-4.4232 0.894052,-2.21161 2.846852,-2.21161 1.458717,0 2.540991,1.55283 -0.02353,-0.18822 -0.141166,-0.54114 -0.117638,-0.35291 -0.117638,-0.51761 0,-0.21174 0.117638,-0.35291 0.30586,-0.37644 1.22344,-0.37644 1.458718,0 1.74105,0.65877 z m -3.246822,6.21131 q 0,-1.43519 -0.447027,-2.8939 -0.423498,-1.48225 -0.964635,-1.48225 -1.152858,0 -1.152858,2.65863 0,0.30586 0,0.87053 0.02353,0.58819 0.02353,0.84699 0,1.48225 0.258805,2.65863 0.329387,1.43519 0.870525,1.43519 0.470554,0 0.964635,-1.55282 0.447027,-1.45872 0.447027,-2.541 z"
       style="font-style:normal;font-variant:normal;font-weight:normal;font-stretch:normal;font-size:23.5277px;line-height:1.25;font-family:'Marker Felt';-inkscape-font-specification:'Marker Felt, Normal';font-variant-ligatures:normal;font-variant-caps:normal;font-variant-numeric:normal;font-variant-east-asian:normal;letter-spacing:6.3819px;fill:#000000;fill-opacity:1;stroke:#ff0000;stroke-width:0.588;stroke-miterlimit:4;stroke-dasharray:none"
       id="path2022" />
    <path
       d="m 49.061119,107.66955 q 0.04706,0.35292 -0.141166,0.75289 -0.235277,0.54114 -0.282332,0.79994 0,4.89376 -0.399971,6.79951 -0.870525,3.9997 -3.693849,3.9997 -4.117348,0 -4.117348,-7.50533 0,-2.02338 0.30586,-4.28204 -0.164694,-0.54114 -0.164694,-0.96464 0,-0.6823 0.447027,-1.15286 0.376443,-0.39997 1.105802,-0.39997 0.588192,0 1.105802,0.25881 0.517609,0.23527 0.61172,0.56466 0.04706,0.1647 0.04706,0.32939 0,0.30586 -0.258805,0.98816 -0.258804,0.65878 -0.211749,1.08228 -0.235277,1.31755 -0.235277,3.3174 0,2.02339 0.258805,3.36446 0.329388,1.55283 0.91758,1.55283 0.988164,0 1.294024,-3.34093 0.164694,-1.67047 0.164694,-5.31726 0,-0.23528 -0.07058,-0.6823 -0.07058,-0.44703 -0.07058,-0.65878 0,-0.56466 0.423499,-0.77641 0.235277,-0.11764 0.658776,-0.11764 0.776414,0 1.435189,0.32939 0.776414,0.39997 0.870525,1.05874 z"
       style="font-style:normal;font-variant:normal;font-weight:normal;font-stretch:normal;font-size:23.5277px;line-height:1.25;font-family:'Marker Felt';-inkscape-font-specification:'Marker Felt, Normal';font-variant-ligatures:normal;font-variant-caps:normal;font-variant-numeric:normal;font-variant-east-asian:normal;letter-spacing:6.3819px;fill:#000000;fill-opacity:1;stroke:#ff0000;stroke-width:0.588;stroke-miterlimit:4;stroke-dasharray:none"
       id="path2024" />
    <path
       d="m 60.906581,101.50529 q 0.07058,0.0706 0.07058,0.23528 0,0.21175 -0.141166,0.72936 -0.164694,0.63525 -0.211749,0.87052 -0.04706,0.23528 0.04706,1.03522 0,0.49409 -0.30586,0.65878 -0.282332,0.14117 -0.729359,0.14117 -0.635248,0 -1.294023,-0.25881 -0.799942,-0.32939 -0.799942,-0.87052 0,-0.1647 0.141166,-0.44703 0.141166,-0.30586 0.164694,-0.49408 0.04706,-0.18822 0,-0.94111 -0.04706,-0.58819 0.235277,-0.79994 0.376443,-0.28233 1.341079,-0.28233 1.058747,0 1.482245,0.42349 z m 0.30586,5.74076 q 0,0.32939 -0.376443,1.03522 -0.352915,0.68231 -0.352915,1.12933 v 6.91715 q 0,0.47055 0.258804,1.34107 0.258805,0.847 0.258805,1.17639 0,0.47055 -0.376443,0.70583 -0.588193,0.37644 -1.270496,0.37644 -0.894053,0 -1.270496,-0.61172 -0.494082,-0.75288 -0.494082,-4.49379 0,-0.89405 0.02353,-2.77627 0.04706,-1.90574 0.04706,-2.77626 0,-0.32939 -0.07058,-0.847 -0.07058,-0.54114 -0.07058,-0.77642 0,-0.77641 0.564665,-1.34107 0.235277,-0.23528 0.870525,-0.23528 0.635248,0 1.270496,0.21175 0.635248,0.18822 0.799942,0.44702 0.188221,0.25881 0.188221,0.51761 z"
       style="font-style:normal;font-variant:normal;font-weight:normal;font-stretch:normal;font-size:23.5277px;line-height:1.25;font-family:'Marker Felt';-inkscape-font-specification:'Marker Felt, Normal';font-variant-ligatures:normal;font-variant-caps:normal;font-variant-numeric:normal;font-variant-east-asian:normal;letter-spacing:6.3819px;fill:#000000;fill-opacity:1;stroke:#ff0000;stroke-width:0.588;stroke-miterlimit:4;stroke-dasharray:none"
       id="path2026" />
    <path
       d="m 78.702726,112.65742 q 0,2.49394 -1.058746,4.54085 -1.176385,2.2116 -2.893908,2.2116 -0.964635,0 -1.976326,-1.5293 v 3.01155 q 0,0.37644 0.30586,0.96464 0.30586,0.58819 0.30586,0.89405 0,0.23527 -0.117639,0.47055 -0.494081,1.05875 -1.929271,1.05875 -1.176385,0 -1.458718,-0.847 -0.09411,-0.28233 -0.09411,-0.54114 0,-0.2588 0.141166,-0.70583 0.164694,-0.4235 0.164694,-0.72936 v -13.38726 q 0,-0.2588 -0.188222,-0.61172 -0.188221,-0.37644 -0.188221,-0.61172 0,-0.18822 0.09411,-0.39997 0.282333,-0.65877 1.74105,-0.65877 0.917581,0 1.223441,0.37644 0.117638,0.14117 0.117638,0.35291 0,0.1647 -0.117638,0.51761 -0.117639,0.35292 -0.141167,0.54114 1.082275,-1.55283 2.540992,-1.55283 1.952799,0 2.846852,2.21161 0.682303,1.71752 0.682303,4.4232 z m -2.96449,0 q 0,-2.23513 -0.09411,-2.84685 -0.235277,-1.5293 -1.176385,-1.5293 -0.541137,0 -0.988163,1.48225 -0.423499,1.45871 -0.423499,2.8939 0,1.08228 0.470554,2.541 0.470554,1.55282 0.941108,1.55282 0.564665,0 0.941108,-1.43519 0.329388,-1.24696 0.329387,-2.65863 z"
       style="font-style:normal;font-variant:normal;font-weight:normal;font-stretch:normal;font-size:23.5277px;line-height:1.25;font-family:'Marker Felt';-inkscape-font-specification:'Marker Felt, Normal';font-variant-ligatures:normal;font-variant-caps:normal;font-variant-numeric:normal;font-variant-east-asian:normal;letter-spacing:6.3819px;fill:#000000;fill-opacity:1;stroke:#ff0000;stroke-width:0.588;stroke-miterlimit:4;stroke-dasharray:none"
       id="path2028" />
    <path
       d="m 114.90122,108.46949 q -0.18822,0 -0.58819,-0.14116 -0.39997,-0.1647 -0.61172,-0.1647 -0.16469,0 -0.32939,0.0706 l -0.87052,0.44702 v 8.04648 q 0,0.44702 0.47055,1.15285 0.49408,0.70583 0.39997,1.12933 -0.11763,0.51761 -0.70583,0.82347 -0.56466,0.30586 -1.22344,0.30586 -1.24697,0 -1.71752,-1.1058 -0.14117,-0.32939 -0.16469,-2.09396 -0.0235,-1.17639 0.0235,-3.67033 0.0471,-2.82332 0.0471,-3.57621 -0.14117,0.0471 -0.47055,0.32939 -0.32939,0.25881 -0.65878,0.25881 -0.2588,0 -0.65878,-0.14117 -1.64693,-0.56466 -1.64693,-1.15286 0,-0.14116 0.0706,-0.30586 0.16469,-0.37644 0.61172,-0.4235 0.6823,-0.0941 0.82347,-0.16469 0.54114,-0.21175 1.97632,-1.01169 v -2.04691 q 0,-0.23528 -0.14116,-0.61172 -0.11764,-0.39997 -0.11764,-0.58819 0,-0.21175 0.11764,-0.39997 0.61172,-0.94111 1.64694,-0.94111 1.19991,0 1.69399,0.94111 0.18822,0.37644 0.18822,0.61172 0,0.28233 -0.28233,0.58819 -0.28233,0.30586 -0.28233,0.56466 v 1.15286 q 0.4235,-0.18822 0.94111,-0.63525 0.39997,-0.32939 0.6823,-0.32939 0.11764,0 0.2588,0.0471 1.48225,0.39997 1.48225,1.78811 0,0.44702 -0.28233,0.84699 -0.25881,0.39997 -0.68231,0.39997 z"
       style="font-style:normal;font-variant:normal;font-weight:normal;font-stretch:normal;font-size:23.5277px;line-height:1.25;font-family:'Marker Felt';-inkscape-font-specification:'Marker Felt, Normal';font-variant-ligatures:normal;font-variant-caps:normal;font-variant-numeric:normal;font-variant-east-asian:normal;letter-spacing:6.3819px;fill:#000000;fill-opacity:1;stroke:#ff0000;stroke-width:0.588;stroke-miterlimit:4;stroke-dasharray:none"
       id="path2032" />
    <path
       d="m 130.41663,107.01078 q 1.57636,1.59988 1.57636,5.38784 0,2.94096 -1.1058,5.0114 -1.24697,2.32924 -3.43505,2.32924 -2.16455,0 -3.34093,-2.09396 -1.03522,-1.83516 -1.03522,-4.65849 0,-2.49393 0.79994,-4.47026 0.847,-2.11749 2.16455,-2.49394 0.6823,-0.18822 1.41166,-0.18822 1.81163,0 2.96449,1.17639 z m -2.68216,1.12933 q -0.77641,-0.0706 -1.34108,1.45871 -0.49408,1.38814 -0.49408,2.91744 0,2.2116 0.18822,3.12918 0.32939,1.64694 1.36461,1.81164 0.65878,0.0941 1.22344,-1.81164 0.54114,-1.83516 0.54114,-3.92912 0,-3.43505 -1.48225,-3.57621 z"
       style="font-style:normal;font-variant:normal;font-weight:normal;font-stretch:normal;font-size:23.5277px;line-height:1.25;font-family:'Marker Felt';-inkscape-font-specification:'Marker Felt, Normal';font-variant-ligatures:normal;font-variant-caps:normal;font-variant-numeric:normal;font-variant-east-asian:normal;letter-spacing:6.3819px;fill:#000000;fill-opacity:1;stroke:#ff0000;stroke-width:0.588;stroke-miterlimit:4;stroke-dasharray:none"
       id="path2034" />
    <path
       d="m 157.12501,106.30495 q 0.0706,0.18822 0.0706,0.35291 0,0.37644 -0.4235,0.91758 -0.51761,0.63525 -0.63525,0.98816 l -2.58805,7.8112 q -0.11763,0.37644 -0.11763,0.89405 0,0.1647 0,0.51761 0.0235,0.32939 0.0235,0.49408 0,0.87053 -0.58819,1.29403 -0.58819,0.4235 -1.34108,0.4235 -1.12933,0 -1.88221,-0.847 -0.37645,-0.4235 -0.37645,-0.96464 0,-0.79994 -0.0471,-1.01169 l -1.41166,-5.22315 -1.36461,4.70554 q -0.0706,0.25881 -0.11764,0.98817 -0.0471,0.58819 -0.2588,0.9411 -0.89406,1.45872 -2.18808,1.45872 -0.44703,0 -0.82347,-0.2588 -0.47055,-0.30586 -0.56467,-0.94111 -0.0941,-0.63525 -0.18822,-1.24697 l -2.07043,-8.04647 q -0.0706,-0.30586 -0.4235,-1.12933 -0.28234,-0.63525 -0.28234,-1.08228 0,-0.30586 0.11764,-0.61172 0.21175,-0.65877 1.694,-0.65877 0.82347,0 1.1058,0.23528 0.35292,0.30586 0.37644,0.98816 0.0235,1.03522 0.0471,1.12933 l 1.41166,5.64665 1.97633,-5.78782 q 0.047,-0.16469 0.047,-0.32939 0,-0.14116 -0.0706,-0.39997 -0.0471,-0.28233 -0.0471,-0.4235 0,-0.5176 0.56467,-0.79994 0.47055,-0.2588 1.03522,-0.2588 0.77641,0 1.29402,0.37644 0.65878,0.47056 0.72936,1.22344 0.0706,0.72936 0.11764,1.45872 l 1.41166,5.64665 2.25866,-6.77598 q 0.0471,-0.14117 0.0471,-0.30586 0,-0.18822 -0.0706,-0.49408 -0.0706,-0.32939 -0.0706,-0.49408 0,-0.21175 0.0941,-0.39997 0.35292,-0.63525 1.85869,-0.63525 1.41166,0 1.67046,0.63525 z"
       style="font-style:normal;font-variant:normal;font-weight:normal;font-stretch:normal;font-size:23.5277px;line-height:1.25;font-family:'Marker Felt';-inkscape-font-specification:'Marker Felt, Normal';font-variant-ligatures:normal;font-variant-caps:normal;font-variant-numeric:normal;font-variant-east-asian:normal;letter-spacing:6.3819px;fill:#000000;fill-opacity:1;stroke:#ff0000;stroke-width:0.588;stroke-miterlimit:4;stroke-dasharray:none"
       id="path2036" />
    <path
       d="m 175.97292,117.6453 q -0.047,0.51761 -0.6823,0.89405 -0.63525,0.35291 -1.41166,0.35291 -1.15286,0 -1.57636,-0.72935 0.18822,-7.24654 -0.4235,-7.34065 -0.58819,-0.0941 -2.87037,6.49365 0,0.70583 0,1.41166 -0.0235,0.847 -0.47056,1.19991 -0.4235,0.35292 -0.91758,0.35292 -0.847,0 -1.81163,-0.91758 -0.28233,-0.23528 -0.30586,-3.57621 0.0235,2.04691 0.0235,-7.59945 0,-0.21175 -0.0471,-0.56466 -0.0471,-0.37645 -0.0471,-0.54114 0,-0.44703 0.23528,-0.77641 0.28233,-0.4235 0.89405,-0.4235 0.63525,0 1.31756,0.39997 0.70583,0.37644 0.84699,0.72936 0.0941,0.23527 0.0941,0.47055 0,0.23528 -0.18822,0.65878 -0.18822,0.42349 -0.18822,0.70583 v 3.24682 q 1.48225,-3.15271 2.23513,-4.1644 1.34108,-1.74105 3.03508,-1.62341 1.01169,0.0706 1.43519,1.88221 0.32938,1.36461 0.35291,4.04677 0,2.11749 0,4.23498 0.0471,0.1647 0.32939,0.58819 0.16469,0.23528 0.14116,0.5882 z"
       style="font-style:normal;font-variant:normal;font-weight:normal;font-stretch:normal;font-size:23.5277px;line-height:1.25;font-family:'Marker Felt';-inkscape-font-specification:'Marker Felt, Normal';font-variant-ligatures:normal;font-variant-caps:normal;font-variant-numeric:normal;font-variant-east-asian:normal;letter-spacing:6.3819px;fill:#000000;fill-opacity:1;stroke:#ff0000;stroke-width:0.588;stroke-miterlimit:4;stroke-dasharray:none"
       id="path2038" />
    <g
       id="g933"
       transform="matrix(0.01582524,-0.01582524,0.01582524,0.01582524,89.247078,121.23057)"
       style="fill:#ff0000">
      <path
         d="M 127.25,57.75 24.805,92.011 24,189.875 44.877,185.237 V 95.393 L 128,73.64 211.123,95.393 v 89.844 l 21.502,4.638 0.038,-98.839 L 127.25,57.75"
         fill="#876929"
         id="path925"
         style="fill:#ff0000" />
      <path
         d="M 230.316,186.738 211.123,185.237 128,196.543 44.877,185.237 l -19.193,1.501 102.675,20.486 101.957,-20.486"
         fill="#fad791"
         id="path927"
         style="fill:#ff0000" />
      <path
         d="M 129.434,205.7 128,202.687 25.689,186.737 V 92.501 L 128,61.806 129.009,60.388 V 1.926 L 128,0 0,64 v 154.941 l 89.714,31.93 v 39.62 l 38.372,19.269 1.169,-3.316 0.179,-100.744"
         fill="#876929"
         id="path929"
         style="fill:#ff0000" />
      <path
         d="m 128,0 v 61.806 l 102.311,30.695 v 94.236 L 128,202.687 v 13.625 l -0.086,0.017 v 93.431 l 38.372,-19.269 v -39.62 L 256,218.941 V 64 L 128,0"
         fill="#d9a741"
         id="path931"
         style="fill:#ff0000" />
    </g>
  </g>
  </symbol></svg>
